<?xml version="1.0" encoding="UTF-8" standalone="no"?>
<!DOCTYPE svg PUBLIC "-//W3C//DTD SVG 1.1//EN" "http://www.w3.org/Graphics/SVG/1.1/DTD/svg11.dtd">
<svg version="1.1" xmlns="http://www.w3.org/2000/svg" xmlns:xlink="http://www.w3.org/1999/xlink" preserveAspectRatio="xMidYMid meet" viewBox="0 0 660 640" width="660" height="640"><defs><path d="M462.48 145.66C524.81 221.79 559.44 264.08 566.37 272.54C579.4 297.2 578.93 298.58 570.82 318.5C559.09 340.28 540.46 359.78 522.82 376.5C478.59 418.42 422.91 454.15 342.27 476.36C316.27 484.04 288.45 462.22 282.5 449.73C277.24 440.56 250.94 394.72 203.6 312.21L462.48 145.66Z" id="a1WyvnyvS1"></path><path d="M284 179.52L628.33 41.95L405.86 345.34L32.06 433.19L284 179.52Z" id="kc6qCspQO"></path><linearGradient id="gradiente1DAbUhu7t" gradientUnits="userSpaceOnUse" x1="45.34" y1="455.18" x2="646.36" y2="68.51"><stop style="stop-color: #032d72;stop-opacity: 1" offset="0%"></stop><stop style="stop-color: #5797fe;stop-opacity: 1" offset="51.77285714029898%"></stop><stop style="stop-color: #032d72;stop-opacity: 1" offset="100%"></stop></linearGradient><path d="M247.35 486.71C280.45 518.11 330.45 559.2 330.8 570.91C333.27 588.98 306.46 614.53 289.04 603.31C270.17 573.05 258.39 536.66 231.49 497.52C231.49 497.52 245.76 487.79 247.35 486.71Z" id="aLFfprJWI"></path><path d="M315.26 236.61C315.2 237.34 317.35 239.87 317.93 240.65C330.84 241.45 347.82 230.69 353.96 217.59C353.83 217.33 353.21 216.04 352.1 213.72C327.94 224.34 315.66 231.97 315.26 236.61Z" id="cxhXlazAy"></path><path d="M337.5 226.55C299.36 267.75 186.05 357.36 177.83 393.74C175.44 404.82 201.54 431.3 211.37 451.3C210.31 451.99 201.84 457.51 200.78 458.2C190.53 439.05 168.48 414.96 166.5 401.43C164.82 387.42 177.35 359.71 326.7 229.69C326.7 229.69 336.42 226.86 337.5 226.55Z" id="bQ2SM0jio"></path><path d="M225.6 461.31C225.6 461.31 225.6 461.31 225.6 461.31C240.45 477.63 248.69 486.69 250.34 488.5C250.34 488.5 250.34 488.5 250.34 488.5C240.29 497.2 234.7 502.03 233.58 503C233.58 503 233.58 503 233.58 503C218.74 486.69 210.49 477.62 208.84 475.81C208.84 475.81 208.84 475.81 208.84 475.81C218.9 467.11 224.48 462.28 225.6 461.31Z" id="b1744mVpay"></path><path d="M443.73 120.07C445.29 118.44 450.58 119.81 443.96 124.33C408.58 149.15 380.98 180.99 351.13 210.81C347.71 215.11 344.82 213.18 346.96 210.66C373.35 177.87 402.12 145.95 443.73 120.07Z" id="a1IrSAc9YC"></path><path d="M500.96 184.66C503.45 183.96 507.79 188.3 498.65 188.94C449.32 193.02 403.39 208.36 356.48 220.45C350.58 222.69 348.91 219.18 352.51 217.94C397.81 201 444.92 186.25 500.96 184.66Z" id="d1EUOeFtog"></path><path d="M181.58 286.96C179.12 287.89 176.78 292.87 185.14 288.29C230.45 263.99 276.69 248.33 322.66 230.17C328.7 228.32 328.94 225.3 325.31 226.5C279.07 240.85 231.99 257.51 181.58 286.96Z" id="aAhLUmDp"></path><path d="M224.02 479.59C215.98 484.76 205.25 482.4 200.05 474.32C200.05 474.32 200.05 474.32 200.05 474.32C194.85 466.24 197.16 455.5 205.2 450.33C213.24 445.15 223.97 447.51 229.17 455.59C234.37 463.67 232.06 474.41 224.02 479.59Z" id="a1IoWx8FQL"></path><path d="M315.53 237.25C312.85 233.08 318.86 224.44 328.96 217.94C339.06 211.45 349.42 209.56 352.1 213.72C347.72 224.89 327.58 237.57 315.53 237.25Z" id="b7itjraWx"></path><linearGradient id="gradientb3gGVETkYr" gradientUnits="userSpaceOnUse" x1="314.75" y1="236.01" x2="351.29" y2="212.5"><stop style="stop-color: #000000;stop-opacity: 1" offset="0%"></stop><stop style="stop-color: #797979;stop-opacity: 1" offset="100%"></stop></linearGradient></defs><g><g><g><use xlink:href="#a1WyvnyvS1" opacity="1" fill="#032d72" fill-opacity="1"></use><g><use xlink:href="#a1WyvnyvS1" opacity="1" fill-opacity="0" stroke="#050404" stroke-width="0.24" stroke-opacity="1"></use></g></g><g><use xlink:href="#kc6qCspQO" opacity="1" fill="url(#gradiente1DAbUhu7t)"></use><g><use xlink:href="#kc6qCspQO" opacity="1" fill-opacity="0" stroke="#000000" stroke-width="1" stroke-opacity="0"></use></g></g><g><use xlink:href="#aLFfprJWI" opacity="1" fill="#ff0000" fill-opacity="1"></use><g><use xlink:href="#aLFfprJWI" opacity="1" fill-opacity="0" stroke="#000000" stroke-width="1" stroke-opacity="0"></use></g></g><g><use xlink:href="#cxhXlazAy" opacity="1" fill="#373737" fill-opacity="1"></use><g><use xlink:href="#cxhXlazAy" opacity="1" fill-opacity="0" stroke="#000000" stroke-width="1" stroke-opacity="0"></use></g></g><g><use xlink:href="#bQ2SM0jio" opacity="1" fill="#ff0000" fill-opacity="1"></use><g><use xlink:href="#bQ2SM0jio" opacity="1" fill-opacity="0" stroke="#000000" stroke-width="1" stroke-opacity="0"></use></g></g><g><use xlink:href="#b1744mVpay" opacity="1" fill="#000000" fill-opacity="1"></use><g><use xlink:href="#b1744mVpay" opacity="1" fill-opacity="0" stroke="#000000" stroke-width="1" stroke-opacity="0"></use></g></g><g><use xlink:href="#a1IrSAc9YC" opacity="1" fill="#000000" fill-opacity="1"></use><g><use xlink:href="#a1IrSAc9YC" opacity="1" fill-opacity="0" stroke="#000000" stroke-width="1" stroke-opacity="0"></use></g></g><g><use xlink:href="#d1EUOeFtog" opacity="1" fill="#000000" fill-opacity="1"></use><g><use xlink:href="#d1EUOeFtog" opacity="1" fill-opacity="0" stroke="#000000" stroke-width="1" stroke-opacity="0"></use></g></g><g><use xlink:href="#aAhLUmDp" opacity="1" fill="#000000" fill-opacity="1"></use><g><use xlink:href="#aAhLUmDp" opacity="1" fill-opacity="0" stroke="#000000" stroke-width="1" stroke-opacity="0"></use></g></g><g><use xlink:href="#a1IoWx8FQL" opacity="1" fill="#000000" fill-opacity="1"></use><g><use xlink:href="#a1IoWx8FQL" opacity="1" fill-opacity="0" stroke="#000000" stroke-width="1" stroke-opacity="0"></use></g></g><g><use xlink:href="#b7itjraWx" opacity="1" fill="url(#gradientb3gGVETkYr)"></use><g><use xlink:href="#b7itjraWx" opacity="1" fill-opacity="0" stroke="#000000" stroke-width="1" stroke-opacity="0"></use></g></g></g></g></svg>