<?xml version="1.0" encoding="UTF-8" standalone="no"?>
<!DOCTYPE svg PUBLIC "-//W3C//DTD SVG 1.1//EN" "http://www.w3.org/Graphics/SVG/1.1/DTD/svg11.dtd">
<svg version="1.1" xmlns="http://www.w3.org/2000/svg" xmlns:xlink="http://www.w3.org/1999/xlink" preserveAspectRatio="xMidYMid meet" viewBox="0 0 911 800" width="911" height="800"><defs><path d="M776 270.94C781.94 276.88 781.94 286.56 776 292.5C753.25 315.25 639.5 429 434.75 633.75C347.75 643.41 299.42 648.77 289.75 649.84C270.37 652.03 253.97 635.63 256.16 616.25C257.23 606.58 262.59 558.25 272.25 471.25C477 266.5 590.75 152.75 613.5 130C619.44 124.06 629.13 124.06 635.06 130C663.25 158.19 761.91 256.84 776 270.94ZM811.94 17.97C788.19 -5.78 749.59 -5.78 725.69 17.97C720.16 23.5 675.91 67.75 670.38 73.28C664.44 79.22 664.44 88.91 670.38 94.84C684.47 108.94 797.22 221.69 811.31 235.78C817.25 241.72 826.94 241.72 832.88 235.78C838.41 230.25 882.66 186 888.19 180.47C911.94 156.56 911.94 117.97 888.19 94.22C872.94 78.97 819.56 25.59 811.94 17.97ZM606 700L106 700L106 200C321.44 200 441.12 200 465.06 200C470.06 200 474.75 197.97 478.34 194.53C484.59 188.28 534.59 138.28 540.84 132.03C552.72 120.16 544.28 100 527.56 100C482.91 100 125.66 100 81 100C39.59 100 6 133.59 6 175C6 230 6 670 6 725C6 766.41 39.59 800 81 800C136 800 576 800 631 800C672.41 800 706 766.41 706 725C706 700.34 706 503.09 706 478.44C706 461.72 685.84 453.44 673.97 465.16C667.72 471.41 617.72 521.41 611.47 527.66C608.03 531.25 606 535.94 606 540.94C606 562.15 606 615.17 606 700Z" id="f1EcKauAcN"></path></defs><g><g><g><use xlink:href="#f1EcKauAcN" opacity="1" fill="#013fa5" fill-opacity="1"></use><g><use xlink:href="#f1EcKauAcN" opacity="1" fill-opacity="0" stroke="#000000" stroke-width="1" stroke-opacity="0"></use></g></g></g></g></svg>