<?xml version="1.0" encoding="UTF-8" standalone="no"?>
<!DOCTYPE svg PUBLIC "-//W3C//DTD SVG 1.1//EN" "http://www.w3.org/Graphics/SVG/1.1/DTD/svg11.dtd">
<svg version="1.1" xmlns="http://www.w3.org/2000/svg" xmlns:xlink="http://www.w3.org/1999/xlink" preserveAspectRatio="xMidYMid meet" viewBox="0 0 735 400" width="735" height="400"><defs><path d="M528.48 82.63C539.71 180.38 545.95 234.68 547.2 245.54C544.81 273.34 543.67 274.24 526.07 286.61C504.43 298.57 478.2 304.9 454.33 309.41C394.44 320.74 328.29 320.66 248.46 295.71C222.44 288.1 210.84 254.7 212.6 240.98C213.13 230.42 215.82 177.64 220.65 82.63L528.48 82.63Z" id="a4Atf06Hnr"></path><path d="M360.05 14.54L724.07 85.14L372.82 219.93L10.93 91.57L360.05 14.54Z" id="c5789Q9BRE"></path><linearGradient id="gradientc4HPSlTcTa" gradientUnits="userSpaceOnUse" x1="10.2" y1="117.24" x2="724.85" y2="117.24"><stop style="stop-color: #065afe;stop-opacity: 1" offset="0%"></stop><stop style="stop-color: #1a2334;stop-opacity: 1" offset="100%"></stop></linearGradient><path d="M163.03 253.05C173.88 297.38 193.69 358.98 187.66 369.02C179.95 385.55 143.58 392.53 135.01 373.67C135.5 338.01 145.29 301.04 143.84 253.57C143.84 253.57 161.11 253.1 163.03 253.05Z" id="a7AIlRpEO"></path><path d="M355.46 79.47C355.01 80.05 355.45 83.34 355.52 84.31C365.94 91.96 386.05 92.1 398.29 84.41C398.33 84.12 398.5 82.7 398.82 80.15C372.76 76 358.3 75.78 355.46 79.47Z" id="b8I0pYSB"></path><path d="M379.61 83.04C325.24 97.06 181.46 111.1 154.87 137.25C146.86 145.28 154.48 181.67 151.93 203.81C150.67 203.82 140.55 203.88 139.29 203.88C141.03 182.23 135.52 150.04 141.18 137.59C147.35 124.9 172.88 108.38 368.82 79.83C368.82 79.83 378.53 82.72 379.61 83.04Z" id="bzETZpJtt"></path><path d="M158.48 219.93C158.48 219.93 158.48 219.93 158.48 219.93C162.14 241.68 164.17 253.77 164.57 256.18C164.57 256.18 164.57 256.18 164.57 256.18C151.41 258.06 144.1 259.1 142.64 259.31C142.64 259.31 142.64 259.31 142.64 259.31C138.98 237.55 136.95 225.47 136.54 223.05C136.54 223.05 136.54 223.05 136.54 223.05C149.7 221.18 157.01 220.14 158.48 219.93Z" id="bWbmOoxTk"></path><path d="M526.55 50.97C528.74 50.44 532.45 54.46 524.45 54.67C481.26 56.4 440.82 68.25 399.58 77.17C394.38 78.94 392.99 75.76 396.16 74.79C436.09 61.5 477.55 50.22 526.55 50.97Z" id="c30Xe1IyGE"></path><path d="M539.74 136.25C542.21 137.01 543.51 143.01 535.48 138.6C491.79 115.35 444.86 103.39 398.87 88.18C392.69 86.87 393.19 83.02 396.88 83.92C444.15 94.18 491.75 107.27 539.74 136.25Z" id="hjCNUZ5H3"></path><path d="M215.79 49.48C213.22 48.94 208.56 51.85 218.07 52.52C269.32 56.61 316.68 68.45 365.16 78.05C371.24 79.77 373.09 77.36 369.38 76.4C322.73 63.46 274.13 51.99 215.79 49.48Z" id="a6YOBva7kx"></path><path d="M147.26 234.45C137.7 234.45 129.95 226.66 129.95 217.05C129.95 217.05 129.95 217.05 129.95 217.05C129.95 207.44 137.7 199.65 147.26 199.65C156.82 199.65 164.57 207.44 164.57 217.05C164.57 226.66 156.82 234.45 147.26 234.45Z" id="bXm0PngQv"></path><path d="M355.34 80.15C355.34 75.2 365.07 71.18 377.08 71.18C389.09 71.18 398.82 75.2 398.82 80.15C389.1 87.17 365.3 86.94 355.34 80.15Z" id="b1KhjCqqGy"></path><linearGradient id="gradientc5IEgfQskI" gradientUnits="userSpaceOnUse" x1="355.35" y1="78.68" x2="398.8" y2="78.68"><stop style="stop-color: #000000;stop-opacity: 1" offset="0%"></stop><stop style="stop-color: #797979;stop-opacity: 1" offset="100%"></stop></linearGradient></defs><g><g><g><use xlink:href="#a4Atf06Hnr" opacity="1" fill="#032d72" fill-opacity="1"></use><g><use xlink:href="#a4Atf06Hnr" opacity="1" fill-opacity="0" stroke="#050404" stroke-width="0.24" stroke-opacity="1"></use></g></g><g><use xlink:href="#c5789Q9BRE" opacity="1" fill="url(#gradientc4HPSlTcTa)"></use><g><use xlink:href="#c5789Q9BRE" opacity="1" fill-opacity="0" stroke="#000000" stroke-width="1" stroke-opacity="0"></use></g></g><g><use xlink:href="#a7AIlRpEO" opacity="1" fill="#ff0000" fill-opacity="1"></use><g><use xlink:href="#a7AIlRpEO" opacity="1" fill-opacity="0" stroke="#000000" stroke-width="1" stroke-opacity="0"></use></g></g><g><use xlink:href="#b8I0pYSB" opacity="1" fill="#373737" fill-opacity="1"></use><g><use xlink:href="#b8I0pYSB" opacity="1" fill-opacity="0" stroke="#000000" stroke-width="1" stroke-opacity="0"></use></g></g><g><use xlink:href="#bzETZpJtt" opacity="1" fill="#ff0000" fill-opacity="1"></use><g><use xlink:href="#bzETZpJtt" opacity="1" fill-opacity="0" stroke="#000000" stroke-width="1" stroke-opacity="0"></use></g></g><g><use xlink:href="#bWbmOoxTk" opacity="1" fill="#000000" fill-opacity="1"></use><g><use xlink:href="#bWbmOoxTk" opacity="1" fill-opacity="0" stroke="#000000" stroke-width="1" stroke-opacity="0"></use></g></g><g><use xlink:href="#c30Xe1IyGE" opacity="1" fill="#000000" fill-opacity="1"></use><g><use xlink:href="#c30Xe1IyGE" opacity="1" fill-opacity="0" stroke="#000000" stroke-width="1" stroke-opacity="0"></use></g></g><g><use xlink:href="#hjCNUZ5H3" opacity="1" fill="#000000" fill-opacity="1"></use><g><use xlink:href="#hjCNUZ5H3" opacity="1" fill-opacity="0" stroke="#000000" stroke-width="1" stroke-opacity="0"></use></g></g><g><use xlink:href="#a6YOBva7kx" opacity="1" fill="#000000" fill-opacity="1"></use><g><use xlink:href="#a6YOBva7kx" opacity="1" fill-opacity="0" stroke="#000000" stroke-width="1" stroke-opacity="0"></use></g></g><g><use xlink:href="#bXm0PngQv" opacity="1" fill="#000000" fill-opacity="1"></use><g><use xlink:href="#bXm0PngQv" opacity="1" fill-opacity="0" stroke="#000000" stroke-width="1" stroke-opacity="0"></use></g></g><g><use xlink:href="#b1KhjCqqGy" opacity="1" fill="url(#gradientc5IEgfQskI)"></use><g><use xlink:href="#b1KhjCqqGy" opacity="1" fill-opacity="0" stroke="#000000" stroke-width="1" stroke-opacity="0"></use></g></g></g></g></svg>